<svg width="40" height="40" viewBox="0 0 40 40" fill="none" xmlns="http://www.w3.org/2000/svg">
<path d="M11.704 26.7131C11.704 26.62 12.3168 29.6003 13.3722 27.6209C13.693 27.0243 12.6376 30.1873 12.6376 30.1873C12.6376 30.1873 11.5982 28.5448 11.704 26.7131Z" fill="#050505"/>
<path d="M25.7742 15.6939L24.151 17.1952C23.9553 17.3781 23.7724 17.5738 23.5735 17.7534L21.453 19.6429C21.1322 19.9188 20.8339 20.214 20.5259 20.4963C20.3341 20.6859 20.1328 20.8658 19.9228 21.0352C19.8138 21.1154 19.7015 21.1892 19.602 21.263C19.5026 21.3367 19.3582 21.3977 19.2395 21.4651C19.1208 21.5324 19.0791 21.4651 19.1433 21.3303C19.2449 21.1055 19.3674 20.8907 19.509 20.6887C19.8619 20.2877 20.2757 19.9381 20.6607 19.5563C21.0456 19.1746 21.4498 18.8121 21.8637 18.4528C22.3545 18.0197 22.8068 17.5064 23.2752 17.0284L24.8246 15.4501C25.1454 15.1293 25.4662 14.8085 25.7678 14.4877C26.2361 13.9873 26.7302 13.4932 27.1536 12.9703C27.4791 12.5607 27.7801 12.1323 28.0551 11.6872C28.116 11.5909 28.1705 11.4915 28.2347 11.3984C28.3438 11.2316 28.4272 11.129 28.5363 11.0776C28.6534 11.0798 28.7703 11.0905 28.8859 11.1097C28.9533 11.1097 29.0239 11.1097 29.0816 11.1097C29.1394 11.1097 29.2452 11.1739 29.2901 11.3086C29.3123 11.3911 29.3189 11.4771 29.3094 11.562C29.302 11.6445 29.2768 11.7244 29.2356 11.7962C28.7388 12.6633 28.121 13.4551 27.4006 14.1477C26.8809 14.6802 26.3388 15.1935 25.7966 15.7132L25.7742 15.6939Z" fill="#050505"/>
<path d="M20.388 24.9069C20.7954 24.9935 21.1932 25.1058 21.5878 25.2277C21.7321 25.2694 21.8797 25.3015 22.0241 25.3528C22.5208 25.54 23.0024 25.7652 23.4644 26.0265C23.6698 26.1452 23.8815 26.2478 24.0868 26.3473C24.2236 26.4174 24.3535 26.5001 24.475 26.5943C24.5866 26.7064 24.6816 26.8339 24.7573 26.9728C24.8054 27.0595 24.7284 27.114 24.5904 27.1493C24.4287 27.1943 24.2594 27.2052 24.0932 27.1814C24.027 27.1669 23.9647 27.1385 23.9104 27.098L23.7435 26.9889L23.3875 26.7804L22.656 26.3633C22.3404 26.2084 22.0077 26.091 21.6648 26.0137C21.2926 25.9014 20.9141 25.8084 20.5324 25.7249C20.295 25.68 20.0576 25.6351 19.817 25.603L19.2716 25.5421C19.0888 25.5421 18.9059 25.5196 18.7231 25.5196C18.4413 25.5391 18.1614 25.5799 17.8858 25.6415C17.8248 25.6415 17.7639 25.6736 17.7029 25.6832C17.4752 25.6832 17.3821 25.6319 17.334 25.4074C17.334 25.3592 17.3019 25.3143 17.2923 25.2726C17.2648 25.1062 17.3588 24.9435 17.5169 24.8845C17.7708 24.7794 18.0411 24.7196 18.3156 24.708C18.5933 24.6872 18.8721 24.6872 19.1497 24.708C19.5664 24.7384 19.9809 24.7931 20.3912 24.8716L20.388 24.9069Z" fill="#050505"/>
<path d="M22.6625 19.3152L18.4408 22.6258C17.9275 23.03 17.4399 23.4567 16.9234 23.8577C16.4556 24.1847 16.0252 24.5623 15.6402 24.9837C15.5404 25.0885 15.4332 25.1861 15.3194 25.2756C15.2841 25.3077 15.2777 25.3109 15.2681 25.3141C15.257 25.3233 15.2472 25.3342 15.2392 25.3462C15.2071 25.3879 15.1686 25.4328 15.1365 25.4809C14.9986 25.6734 14.8927 25.9108 14.758 26.1225C14.4936 26.6064 14.2631 27.108 14.0683 27.6238L13.9913 27.8195L13.9015 28.0697L13.6673 28.6825C13.5261 29.0771 13.3978 29.4716 13.2599 29.77C13.1653 29.9761 13.0446 30.1691 12.9006 30.3442C12.8471 30.4205 12.7707 30.4778 12.6824 30.5078H12.6311C12.6311 30.5495 12.6311 30.5078 12.6311 30.5303H12.6055C12.5748 30.5204 12.5448 30.5087 12.5156 30.495C12.4574 30.4662 12.4034 30.4295 12.3552 30.3859C12.3039 30.3442 12.2622 30.3025 12.2173 30.264C12.1752 30.2158 12.1356 30.1655 12.0986 30.1132C12.0233 30.0115 11.9557 29.9043 11.8965 29.7924C11.8242 29.6717 11.7599 29.5463 11.704 29.4171C11.657 29.2738 11.6056 29.1294 11.55 28.984C11.4859 28.7883 11.4474 28.5541 11.3832 28.3424L11.2998 27.9895C11.2677 27.8805 11.2453 27.7233 11.2292 27.6687L11.1362 27.1811C11.0966 27.0212 11.072 26.858 11.0624 26.6935L10.9918 25.7568C10.977 25.6097 10.9716 25.4619 10.9758 25.3141C10.9748 25.1883 10.964 25.0629 10.9437 24.9388C10.9437 24.8714 10.9437 24.8393 10.9437 24.7976C10.9446 24.7506 10.9616 24.7053 10.9918 24.6693C11.1159 24.5472 11.3085 24.5285 11.4538 24.6244C11.7462 24.7819 12.0012 25.0008 12.2013 25.266C12.4338 25.5674 12.5931 25.9189 12.6664 26.2925C12.6953 26.4593 12.7338 26.6133 12.7466 26.793V27.534C12.7466 27.5918 12.7466 27.5757 12.7466 27.5757C12.7332 27.6075 12.7332 27.6434 12.7466 27.6752C12.7659 27.7169 12.7787 27.7169 12.8204 27.6752L12.8557 27.627C12.8557 27.627 12.8557 27.627 12.8717 27.5886L12.891 27.5276L12.968 27.2838C13.077 26.963 13.1925 26.6422 13.3273 26.3214C13.4075 26.1257 13.4909 25.93 13.5807 25.7343C13.6288 25.6349 13.6737 25.5354 13.725 25.436C13.7764 25.3366 13.8405 25.2435 13.9015 25.1473C14.0338 24.9434 14.1806 24.7493 14.341 24.5666C14.3995 24.5093 14.4617 24.4557 14.527 24.4062L14.6457 24.3132C14.7251 24.2479 14.8087 24.1879 14.896 24.1336C15.0692 24.0213 15.252 23.9186 15.4156 23.8128L15.8744 23.3604L16.7887 22.5424L20.8115 18.988L22.0529 17.8908C22.47 17.5315 22.887 17.1723 23.3008 16.8065C24.5552 15.703 25.8127 14.593 27.0028 13.4382C27.4616 12.9858 27.8979 12.5207 28.3245 12.0491C28.7512 11.5775 29.1618 11.0867 29.5789 10.6216C29.7585 10.4066 29.951 10.2142 30.1499 10.0185C30.4071 9.75068 30.6983 9.51773 31.016 9.32555C31.1154 9.26857 31.224 9.22949 31.3368 9.21006C31.4435 9.19951 31.5509 9.19951 31.6576 9.21006C31.7442 9.21006 31.8373 9.21006 31.8982 9.21006C32.0682 9.2261 32.0554 9.78429 31.6255 10.458C31.4716 10.7146 31.3047 10.952 31.1379 11.199L30.8845 11.5679C30.7979 11.6898 30.6984 11.7989 30.6054 11.9144C30.1948 12.3742 29.7842 12.8212 29.3735 13.2553C28.9565 13.6852 28.5266 14.1086 28.0904 14.5385L26.7815 15.7768C25.447 16.9894 24.0879 18.1774 22.7042 19.3408L22.6625 19.3152Z" fill="#050505"/>
<path d="M24.3466 15.0681C23.2773 15.7097 22.208 16.3513 21.1386 16.9929C20.7505 17.2303 20.3848 17.4998 19.9966 17.7339L15.8936 20.2137C15.2809 20.5762 14.6874 20.974 14.1036 21.3686C13.3542 21.8797 12.5731 22.3426 11.7649 22.7544C11.5115 22.8795 11.4762 22.7737 11.5853 22.517C11.7605 22.122 12.0061 21.7622 12.3103 21.4552L12.8204 20.9836L13.077 20.743L13.3529 20.5313C13.7207 20.249 14.0929 19.9731 14.4693 19.7036C14.8478 19.4342 15.2231 19.1615 15.6209 18.9177C16.0187 18.6739 16.4197 18.4172 16.8367 18.2023C17.8152 17.6569 18.7423 16.9544 19.6983 16.3321C20.7505 15.6488 21.8155 14.9815 22.8742 14.311L24.8374 13.076C25.8223 12.4344 26.8264 11.8377 27.7888 11.1833C28.5362 10.6764 29.2452 10.1375 29.983 9.62739C30.1466 9.51511 30.3038 9.39641 30.4706 9.30659C31.1122 8.91842 31.433 8.94729 31.6897 9.12694C31.7536 9.16409 31.8147 9.20591 31.8725 9.25205C31.9559 9.33225 31.9495 9.44774 31.8725 9.59851C31.7835 9.79781 31.6546 9.97684 31.494 10.1246C31.2085 10.4165 30.8909 10.6539 30.5797 10.9234C30.2685 11.1929 29.9381 11.4399 29.6173 11.6965C28.9585 12.2116 28.2697 12.6872 27.5546 13.1209C26.5024 13.7945 25.4245 14.4426 24.3466 15.1098V15.0681Z" fill="#050505"/>
<path d="M22.1428 26.0553C21.7401 25.9132 21.3286 25.7975 20.9109 25.7088C20.7569 25.6703 20.5901 25.6864 20.4425 25.6543C20.1698 25.5933 19.894 25.5709 19.6117 25.5292C19.3296 25.4946 19.0457 25.4764 18.7615 25.4746C18.5105 25.4762 18.2605 25.5085 18.0173 25.5709C17.7142 25.6778 17.3956 25.7342 17.0742 25.7377C16.9683 25.7377 16.9138 25.465 16.9362 25.1923C16.9587 24.9197 17.0677 24.6374 17.257 24.586C17.9592 24.4104 18.6906 24.3852 19.4031 24.5122C19.8298 24.586 20.2757 24.5507 20.7088 24.6117C21.1839 24.6809 21.6527 24.7881 22.1107 24.9325C22.393 25.0255 22.6721 25.1153 22.9447 25.2212C23.3618 25.372 23.7564 25.5773 24.1606 25.7537C24.4831 25.8748 24.7971 26.0173 25.1005 26.1804C25.1615 26.2253 25.2288 26.2638 25.2866 26.3151C25.4951 26.5172 25.5175 26.6359 25.4277 26.8284C25.4121 26.8701 25.3939 26.9108 25.3732 26.9503C25.2645 27.0799 25.0875 27.1295 24.9273 27.0754C24.7829 27.0433 24.6257 27.0273 24.4814 27.0016C24.3444 26.9731 24.2117 26.9267 24.0868 26.8637L23.3169 26.5429C22.9281 26.3747 22.5296 26.2301 22.1235 26.1098L22.1428 26.0553Z" fill="#050505"/>
<path d="M29.3254 16.2647C29.1586 16.6401 29.0046 17.0218 28.841 17.4036C28.6774 17.7853 28.5202 18.1639 28.3662 18.552C28.254 18.8311 28.1802 19.1263 28.0711 19.4086C27.6861 20.403 27.3204 21.4103 27.0253 22.4337C26.9034 22.9085 26.7815 23.3512 26.6853 23.8099C26.6275 24.1018 26.5762 24.397 26.5313 24.6889C26.4648 24.9704 26.4134 25.2552 26.3773 25.5422C26.3773 25.6834 26.3003 25.7379 26.1399 25.5871C25.9344 25.3416 25.8041 25.0419 25.7646 24.7242C25.7494 24.0807 25.7859 23.437 25.8736 22.7994C25.9939 22.176 26.1645 21.5634 26.3837 20.9676C26.6436 20.2491 26.7911 19.4759 27.0253 18.7221C27.2851 17.9104 27.5578 17.1181 27.885 16.3129C28.0807 15.8285 28.2892 15.3505 28.4946 14.8629C28.8154 14.1314 29.1618 13.4129 29.4922 12.6943C29.627 12.4152 29.7392 12.1297 29.8612 11.8442C29.9721 11.5532 30.1051 11.2712 30.2589 11.0005C30.3295 10.8818 30.3841 10.7567 30.4675 10.6412C30.769 10.2145 30.9679 10.1407 31.2727 10.2594C31.3442 10.2819 31.4139 10.3098 31.4812 10.3428C31.6929 10.4679 31.7218 10.747 31.5967 11.0646C31.4074 11.5426 31.2759 12.0559 31.0224 12.5275L30.3423 14.0031C30.0215 14.7474 29.6655 15.5012 29.3607 16.2712L29.3254 16.2647Z" fill="#050505"/>
<path d="M18.9059 16.2392L13.9015 18.2923C13.292 18.5425 12.7049 18.8344 12.0954 19.0847L8.88741 20.4063L8.49604 20.5732L8.29715 20.663L8.13996 20.7336L7.79029 20.8683C7.54969 20.9677 7.28022 21.08 6.99792 21.2115C6.93376 21.2404 6.87281 21.2693 6.81506 21.3014C6.78437 21.3161 6.75622 21.3356 6.73165 21.3591C6.7509 21.3591 6.78619 21.3591 6.81506 21.3591L7.18398 21.3848C7.44062 21.4008 7.70367 21.4168 7.94106 21.4425C8.01805 21.4425 8.09504 21.4586 8.16883 21.4714C8.19128 21.4714 8.19449 21.4714 8.2362 21.4714L8.36451 21.5003L8.61794 21.558C8.96034 21.6392 9.29601 21.7464 9.62204 21.8788C9.96504 22.0155 10.2886 22.1967 10.5844 22.4177C10.8958 22.6615 11.1335 22.9869 11.2709 23.3577C11.3576 23.5886 11.3191 23.7106 11.2485 23.733C11.1779 23.7555 11.0432 23.6913 10.8507 23.6239C10.6077 23.5493 10.354 23.5157 10.1 23.5245C9.81393 23.4972 9.53129 23.4413 9.25633 23.3577C8.98091 23.2719 8.70014 23.2044 8.41584 23.1556C8.26827 23.1299 8.12071 23.1042 7.96993 23.085L7.85445 23.0657L7.60422 23.0305C7.43099 23.0305 7.24814 23.0112 7.06849 23.0016L6.53918 22.9374L5.99061 22.8829L5.4228 22.838L5.13729 22.8187C5.05077 22.8157 4.96479 22.8038 4.88065 22.7834C4.65637 22.739 4.44418 22.6471 4.25831 22.514C4.15096 22.4511 4.0709 22.3504 4.03375 22.2317C4.01225 22.1555 4.00251 22.0766 4.00488 21.9975C4.01005 21.9527 4.01005 21.9075 4.00488 21.8628C3.99837 21.8192 3.99837 21.7748 4.00488 21.7312C4.03761 21.4877 4.15048 21.262 4.32567 21.0896C4.4977 20.9062 4.70217 20.7561 4.92877 20.6469L5.03143 20.5924L5.20466 20.5475C5.31373 20.5186 5.44205 20.4897 5.52546 20.4609L5.99382 20.262L6.89526 19.8899L7.33155 19.7295L7.53365 19.646L7.62668 19.6108L7.68442 19.5883C9.19217 18.9916 10.6807 18.2089 12.1756 17.5288L17.1768 15.3057L20.234 13.9262C21.7674 13.2205 23.3361 12.5725 24.8407 11.8282C25.4245 11.5427 25.9923 11.2347 26.5537 10.9204L28.2508 10.0285C28.501 9.89701 28.7384 9.75907 28.9918 9.63075C29.2452 9.50243 29.4185 9.41902 29.5821 9.34524C29.7238 9.2908 29.8697 9.24789 30.0183 9.21692C30.2041 9.17379 30.3972 9.17379 30.5829 9.21692C30.6551 9.23024 30.7279 9.23987 30.8011 9.24579C30.9102 9.26183 30.9037 9.40619 30.7818 9.60829C30.6035 9.88112 30.3875 10.1274 30.1402 10.3397C29.1779 11.0615 28.1898 11.7288 27.1568 12.3704C26.0982 12.9574 25.0075 13.506 23.9072 14.0449C23.0891 14.4395 22.2903 14.8405 21.437 15.2094L18.9252 16.2809L18.9059 16.2392Z" fill="#050505"/>
</svg>
