<svg width="24" height="24" viewBox="0 0 24 24" fill="none" xmlns="http://www.w3.org/2000/svg">
<path d="M12.75 11.7719L14.5969 14.5844C14.8531 14.9281 14.7594 15.3938 14.4156 15.5969C14.0719 15.8531 13.6062 15.7594 13.375 15.4156L11.375 12.4156C11.2937 12.2937 11.25 12.1469 11.25 12V7.75C11.25 7.33437 11.5844 7 12 7C12.4156 7 12.75 7.33437 12.75 7.75V11.7719ZM20 12C20 16.4187 16.4187 20 12 20C7.58125 20 4 16.4187 4 12C4 7.58125 7.58125 4 12 4C16.4187 4 20 7.58125 20 12ZM12 5.5C8.40938 5.5 5.5 8.40938 5.5 12C5.5 15.5906 8.40938 18.5 12 18.5C15.5906 18.5 18.5 15.5906 18.5 12C18.5 8.40938 15.5906 5.5 12 5.5Z" fill="#3D3D3D"/>
</svg>
