<svg width="24" height="24" viewBox="0 0 24 24" fill="none" xmlns="http://www.w3.org/2000/svg">
<path d="M12 4C16.4187 4 20 7.58125 20 12C20 16.4187 16.4187 20 12 20C7.58125 20 4 16.4187 4 12C4 7.58125 7.58125 4 12 4ZM12 18.5C12.2312 18.5 12.8156 18.275 13.4875 16.9875C13.7625 16.4344 13.9719 15.7625 14.175 15H9.825C10 15.7625 10.2375 16.4344 10.5125 16.9875C11.1562 18.275 11.7688 18.5 12 18.5ZM9.57812 13.5H14.4219C14.4719 13.0219 14.5 12.5188 14.5 12C14.5 11.4812 14.4719 10.9781 14.4219 10.5H9.57812C9.52812 10.9781 9.5 11.4812 9.5 12C9.5 12.5188 9.52812 13.0219 9.57812 13.5ZM14.175 9C13.9719 8.2375 13.7625 7.56562 13.4875 7.01406C12.8156 5.72562 12.2312 5.5 12 5.5C11.7688 5.5 11.1562 5.72562 10.5125 7.01406C10.2375 7.56562 10 8.2375 9.825 9H14.175ZM15.9312 10.5C15.975 10.9844 16 11.4875 16 12C16 12.5125 15.975 13.0156 15.9312 13.5H18.325C18.4406 13.0188 18.5 12.5156 18.5 12C18.5 11.4844 18.4406 10.9812 18.325 10.5H15.9312ZM14.6906 6.08156C15.1313 6.88313 15.4813 7.87812 15.7094 9H17.7688C17.1 7.71563 16.0125 6.68375 14.6906 6.08156ZM9.30937 6.08156C7.9875 6.68375 6.90125 7.71563 6.23219 9H8.29063C8.51875 7.87812 8.86875 6.88313 9.30937 6.08156ZM5.5 12C5.5 12.5156 5.56031 13.0188 5.67406 13.5H8.06875C8.025 13.0156 8 12.5125 8 12C8 11.4875 8.025 10.9844 8.06875 10.5H5.67406C5.56031 10.9812 5.5 11.4844 5.5 12ZM17.7688 15H15.7094C15.4813 16.1219 15.1313 17.1156 14.6906 17.9187C16.0125 17.3156 17.1 16.2844 17.7688 15ZM8.29063 15H6.23219C6.90125 16.2844 7.9875 17.3156 9.30937 17.9187C8.86875 17.1156 8.51875 16.1219 8.29063 15Z" fill="#3D3D3D"/>
</svg>
