<svg width="24" height="24" viewBox="0 0 24 24" fill="none" xmlns="http://www.w3.org/2000/svg">
<path d="M11.625 6.30774L11.9719 6.68274L12.3469 6.30837C13.3938 5.28806 14.8438 4.82368 16.2688 5.06087C18.4219 5.41962 20 7.28274 20 9.46712V9.64837C20 10.9452 19.4625 12.1859 18.5125 13.0702L12.8656 18.3421C12.6313 18.5609 12.3219 18.6827 12 18.6827C11.6781 18.6827 11.3688 18.5609 11.1344 18.3421L5.48719 13.0702C4.53844 12.1859 4 10.9452 4 9.64837V9.46712C4 7.28274 5.57875 5.41962 7.73125 5.06087C9.12813 4.82368 10.6062 5.28806 11.625 6.30774C11.625 6.30806 11.5969 6.30774 11.625 6.30774ZM11.9719 8.80462L10.5656 7.34212C9.8875 6.69149 8.925 6.38274 7.97813 6.54024C6.54844 6.77868 5.5 8.01712 5.5 9.46712V9.64837C5.5 10.5296 5.86594 11.3734 6.51062 11.9734L12 17.0984L17.4906 11.9734C18.1344 11.3734 18.5 10.5296 18.5 9.64837V9.46712C18.5 8.01712 17.45 6.77868 16.0219 6.54024C15.075 6.38274 14.1125 6.69149 13.4344 7.34212L11.9719 8.80462Z" fill="#3D3D3D"/>
</svg>
