<svg width="24" height="24" viewBox="0 0 24 24" fill="none" xmlns="http://www.w3.org/2000/svg">
<path d="M10 16.5C10 16.775 9.775 17 9.5 17C9.225 17 9 16.775 9 16.5V10C9 9.725 9.225 9.5 9.5 9.5C9.775 9.5 10 9.725 10 10V16.5ZM12.5 16.5C12.5 16.775 12.275 17 12 17C11.725 17 11.5 16.775 11.5 16.5V10C11.5 9.725 11.725 9.5 12 9.5C12.275 9.5 12.5 9.725 12.5 10V16.5ZM15 16.5C15 16.775 14.775 17 14.5 17C14.225 17 14 16.775 14 16.5V10C14 9.725 14.225 9.5 14.5 9.5C14.775 9.5 15 9.725 15 10V16.5ZM14.9219 4.77938L16.0688 6.5H18.25C18.6656 6.5 19 6.83594 19 7.25C19 7.66563 18.6656 8 18.25 8H18V17.5C18 18.8813 16.8813 20 15.5 20H8.5C7.11937 20 6 18.8813 6 17.5V8H5.75C5.33594 8 5 7.66563 5 7.25C5 6.83594 5.33594 6.5 5.75 6.5H7.93187L9.07812 4.77938C9.40312 4.29241 9.95 4 10.5344 4H13.4656C14.05 4 14.5969 4.29244 14.9219 4.77938ZM9.73438 6.5H14.2656L13.6719 5.61125C13.625 5.54188 13.5469 5.5 13.4656 5.5H10.5344C10.4531 5.5 10.3469 5.54188 10.3281 5.61125L9.73438 6.5ZM7.5 17.5C7.5 18.0531 7.94781 18.5 8.5 18.5H15.5C16.0531 18.5 16.5 18.0531 16.5 17.5V8H7.5V17.5Z" fill="#3D3D3D"/>
</svg>
