<svg width="24" height="24" viewBox="0 0 24 24" fill="none" xmlns="http://www.w3.org/2000/svg">
<path d="M16 6H14.4497C14.1906 4.85875 13.2094 4 12 4C10.7906 4 9.78125 4.85875 9.55 6H8C6.89531 6 6 6.89563 6 8V18C6 19.1044 6.89531 20 8 20H16C17.1047 20 18 19.1044 18 18V8C18 6.89563 17.1031 6 16 6ZM12 5.5C12.4134 5.5 12.75 5.83656 12.75 6.25C12.75 6.66344 12.4125 7 12 7C11.5875 7 11.25 6.66344 11.25 6.25C11.25 5.83656 11.5875 5.5 12 5.5ZM16.5 18C16.5 18.2756 16.2757 18.5 16 18.5H8C7.72431 18.5 7.5 18.2756 7.5 18V8C7.5 7.72438 7.72431 7.5 8 7.5H8.57063C8.52906 7.65937 8.5 7.825 8.5 8V8.5C8.5 8.775 8.72375 9 9 9H15C15.2761 9 15.5 8.77612 15.5 8.5V8C15.5 7.82628 15.4709 7.66062 15.4292 7.5H16C16.2757 7.5 16.5 7.72438 16.5 8V18ZM15 12H11.5C11.225 12 11 12.225 11 12.5C11 12.775 11.225 13 11.5 13H15C15.2764 13 15.5 12.7764 15.5 12.5C15.5 12.2236 15.275 12 15 12ZM15 15H11.5C11.225 15 11 15.225 11 15.5C11 15.775 11.225 16 11.5 16H15C15.2764 16 15.5 15.7764 15.5 15.5C15.5 15.2236 15.275 15 15 15ZM9.25 14.75C8.83594 14.75 8.5 15.0859 8.5 15.5C8.5 15.9141 8.83594 16.25 9.25 16.25C9.66563 16.25 10 15.9156 10 15.5C10 15.0844 9.66563 14.75 9.25 14.75ZM9.375 13C9.50294 13 9.63087 12.9512 9.72844 12.8535L11.2284 11.3535C11.4237 11.1582 11.4237 10.8416 11.2284 10.6466C11.0331 10.4516 10.7166 10.4513 10.5216 10.6466L9.375 11.7937L8.97844 11.3969C8.78312 11.2016 8.46656 11.2016 8.27156 11.3969C8.07656 11.5922 8.07625 11.9088 8.27156 12.1038L9.02156 12.8538C9.11906 12.95 9.24688 13 9.375 13Z" fill="#3D3D3D"/>
</svg>
