<svg width="24" height="24" viewBox="0 0 24 24" fill="none" xmlns="http://www.w3.org/2000/svg">
<path d="M19.0769 13.1727C19.7265 13.1727 20.25 12.6492 20.25 11.9996C20.25 11.3545 19.7272 10.8265 19.0769 10.8265H13.1731V4.92269C13.1731 4.27487 12.6476 3.75 12 3.75C11.3524 3.75 10.8269 4.27487 10.8269 4.92269V10.8265H4.92308C4.27498 10.8265 3.75 11.3543 3.75 12C3.75 12.6478 4.27553 13.1727 4.92308 13.1727H10.8269V19.0765C10.8269 19.7264 11.3525 20.25 12 20.25C12.6478 20.25 13.1731 19.7241 13.1731 19.0765V13.1727H19.0769Z" fill="#050505" stroke="#050505" stroke-width="0.5"/>
</svg>
