<svg width="24" height="24" viewBox="0 0 24 24" fill="none" xmlns="http://www.w3.org/2000/svg">
<path d="M9.125 12C11.0582 12 12.625 10.4329 12.625 8.5C12.625 6.56707 11.0582 5 9.125 5C7.1918 5 5.625 6.56707 5.625 8.5C5.625 10.4329 7.1918 12 9.125 12ZM9.125 6.3125C10.3311 6.3125 11.3125 7.29387 11.3125 8.5C11.3125 9.70613 10.3311 10.6875 9.125 10.6875C7.91887 10.6875 6.9375 9.70586 6.9375 8.5C6.9375 7.29387 7.91914 6.3125 9.125 6.3125ZM10.5113 13.3125H7.73867C5.12105 13.3125 3 15.4344 3 18.0512C3 18.5762 3.42437 19 3.94773 19H14.3012C14.8262 19 15.25 18.5762 15.25 18.0512C15.25 15.4344 13.1281 13.3125 10.5113 13.3125ZM4.33191 17.6875C4.5143 15.9676 5.97227 14.625 7.73867 14.625H10.5113C12.278 14.625 13.7133 15.9684 13.9184 17.6875H4.33191ZM16.1004 13.75H14.0811C15.3375 14.7809 16.125 16.323 16.125 18.0512C16.125 18.4012 16.0211 18.7238 15.8516 19H19.625C20.109 19 20.5 18.6062 20.5 18.1004C20.5 15.7078 18.5422 13.75 16.1004 13.75ZM14.8125 12C16.5051 12 17.875 10.6301 17.875 8.9375C17.875 7.24492 16.5051 5.875 14.8125 5.875C14.1259 5.875 13.4989 6.10893 12.9881 6.49051C13.3031 7.09535 13.5 7.77266 13.5 8.5C13.5 9.47125 13.1738 10.3632 12.6362 11.0897C13.191 11.65 13.9594 12 14.8125 12Z" fill="#3D3D3D"/>
</svg>
